<svg width="19" height="20" viewBox="0 0 19 20" fill="none" xmlns="http://www.w3.org/2000/svg">
<path d="M18.6719 7.41256C18.6142 7.24274 18.5081 7.09353 18.3666 6.98335C18.2251 6.87316 18.0545 6.80681 17.8757 6.79251L12.6465 6.377L10.3837 1.36798C10.3117 1.20665 10.1944 1.06963 10.0462 0.973442C9.89801 0.877257 9.72512 0.826025 9.54843 0.825928C9.37173 0.825831 9.19879 0.876874 9.05046 0.972896C8.90213 1.06892 8.78477 1.20582 8.71253 1.36707L6.44971 6.377L1.22056 6.79251C1.04487 6.80642 0.876907 6.87066 0.736769 6.97754C0.596631 7.08442 0.490251 7.2294 0.430356 7.39516C0.370461 7.56091 0.359587 7.74041 0.399034 7.91218C0.438482 8.08395 0.526581 8.24072 0.652792 8.36373L4.5171 12.1308L3.15042 18.0488C3.10892 18.2279 3.12222 18.4154 3.1886 18.5869C3.25497 18.7584 3.37135 18.9059 3.52264 19.0105C3.67392 19.115 3.85313 19.1716 4.037 19.173C4.22088 19.1744 4.40093 19.1205 4.55379 19.0183L9.54813 15.6888L14.5425 19.0183C14.6987 19.1221 14.883 19.1755 15.0705 19.1713C15.258 19.1672 15.4397 19.1058 15.5912 18.9953C15.7428 18.8848 15.8568 18.7306 15.9181 18.5533C15.9794 18.3761 15.9849 18.1843 15.9339 18.0039L14.2563 12.1336L18.4169 8.38941C18.6893 8.14359 18.7893 7.76019 18.6719 7.41256Z" fill="#F3CD03"/>
</svg>
